<svg id="visual" viewBox="0 0 960 150" width="960" height="150" xmlns="http://www.w3.org/2000/svg" xmlns:xlink="http://www.w3.org/1999/xlink" version="1.1"><rect x="0" y="0" width="960" height="150" fill="#ffffff"></rect><path d="M0 80L22.8 76.5C45.7 73 91.3 66 137 62.3C182.7 58.7 228.3 58.3 274 57.5C319.7 56.7 365.3 55.3 411.2 54.5C457 53.7 503 53.3 548.8 56C594.7 58.7 640.3 64.3 686 64.8C731.7 65.3 777.3 60.7 823 63.3C868.7 66 914.3 76 937.2 81L960 86L960 0L937.2 0C914.3 0 868.7 0 823 0C777.3 0 731.7 0 686 0C640.3 0 594.7 0 548.8 0C503 0 457 0 411.2 0C365.3 0 319.7 0 274 0C228.3 0 182.7 0 137 0C91.3 0 45.7 0 22.8 0L0 0Z" fill="#973bff"></path><path d="M0 50L22.8 51.8C45.7 53.7 91.3 57.3 137 59.7C182.7 62 228.3 63 274 60C319.7 57 365.3 50 411.2 49.2C457 48.3 503 53.7 548.8 54.3C594.7 55 640.3 51 686 52.5C731.7 54 777.3 61 823 63C868.7 65 914.3 62 937.2 60.5L960 59L960 0L937.2 0C914.3 0 868.7 0 823 0C777.3 0 731.7 0 686 0C640.3 0 594.7 0 548.8 0C503 0 457 0 411.2 0C365.3 0 319.7 0 274 0C228.3 0 182.7 0 137 0C91.3 0 45.7 0 22.8 0L0 0Z" fill="#9031ff"></path><path d="M0 54L22.8 52.5C45.7 51 91.3 48 137 44.3C182.7 40.7 228.3 36.3 274 34.7C319.7 33 365.3 34 411.2 37.5C457 41 503 47 548.8 49.8C594.7 52.7 640.3 52.3 686 50.2C731.7 48 777.3 44 823 44.3C868.7 44.7 914.3 49.3 937.2 51.7L960 54L960 0L937.2 0C914.3 0 868.7 0 823 0C777.3 0 731.7 0 686 0C640.3 0 594.7 0 548.8 0C503 0 457 0 411.2 0C365.3 0 319.7 0 274 0C228.3 0 182.7 0 137 0C91.3 0 45.7 0 22.8 0L0 0Z" fill="#8826ff"></path><path d="M0 33L22.8 32.7C45.7 32.3 91.3 31.7 137 31.8C182.7 32 228.3 33 274 32.8C319.7 32.7 365.3 31.3 411.2 30.2C457 29 503 28 548.8 28.2C594.7 28.3 640.3 29.7 686 28.3C731.7 27 777.3 23 823 22.5C868.7 22 914.3 25 937.2 26.5L960 28L960 0L937.2 0C914.3 0 868.7 0 823 0C777.3 0 731.7 0 686 0C640.3 0 594.7 0 548.8 0C503 0 457 0 411.2 0C365.3 0 319.7 0 274 0C228.3 0 182.7 0 137 0C91.3 0 45.7 0 22.8 0L0 0Z" fill="#8018ff"></path><path d="M0 25L22.8 24C45.7 23 91.3 21 137 19.2C182.7 17.3 228.3 15.7 274 16.2C319.7 16.7 365.3 19.3 411.2 20.3C457 21.3 503 20.7 548.8 19.7C594.7 18.7 640.3 17.3 686 15.8C731.7 14.3 777.3 12.7 823 12.5C868.7 12.3 914.3 13.7 937.2 14.3L960 15L960 0L937.2 0C914.3 0 868.7 0 823 0C777.3 0 731.7 0 686 0C640.3 0 594.7 0 548.8 0C503 0 457 0 411.2 0C365.3 0 319.7 0 274 0C228.3 0 182.7 0 137 0C91.3 0 45.7 0 22.8 0L0 0Z" fill="#7700ff"></path></svg>