<svg id="visual" viewBox="0 0 960 300" width="960" height="300" xmlns="http://www.w3.org/2000/svg" xmlns:xlink="http://www.w3.org/1999/xlink" version="1.1"><rect x="0" y="0" width="960" height="300" fill="#ffffff"></rect><path d="M0 162L22.8 154.8C45.7 147.7 91.3 133.3 137 125.8C182.7 118.3 228.3 117.7 274 115.8C319.7 114 365.3 111 411.2 109.3C457 107.7 503 107.3 548.8 112.8C594.7 118.3 640.3 129.7 686 130.5C731.7 131.3 777.3 121.7 823 127C868.7 132.3 914.3 152.7 937.2 162.8L960 173L960 0L937.2 0C914.3 0 868.7 0 823 0C777.3 0 731.7 0 686 0C640.3 0 594.7 0 548.8 0C503 0 457 0 411.2 0C365.3 0 319.7 0 274 0C228.3 0 182.7 0 137 0C91.3 0 45.7 0 22.8 0L0 0Z" fill="#973bff"></path><path d="M0 101L22.8 104.7C45.7 108.3 91.3 115.7 137 120.3C182.7 125 228.3 127 274 121.2C319.7 115.3 365.3 101.7 411.2 100C457 98.3 503 108.7 548.8 109.7C594.7 110.7 640.3 102.3 686 105.3C731.7 108.3 777.3 122.7 823 126.8C868.7 131 914.3 125 937.2 122L960 119L960 0L937.2 0C914.3 0 868.7 0 823 0C777.3 0 731.7 0 686 0C640.3 0 594.7 0 548.8 0C503 0 457 0 411.2 0C365.3 0 319.7 0 274 0C228.3 0 182.7 0 137 0C91.3 0 45.7 0 22.8 0L0 0Z" fill="#9031ff"></path><path d="M0 110L22.8 106.7C45.7 103.3 91.3 96.7 137 89.3C182.7 82 228.3 74 274 70.8C319.7 67.7 365.3 69.3 411.2 76C457 82.7 503 94.3 548.8 99.8C594.7 105.3 640.3 104.7 686 100.3C731.7 96 777.3 88 823 88.7C868.7 89.3 914.3 98.7 937.2 103.3L960 108L960 0L937.2 0C914.3 0 868.7 0 823 0C777.3 0 731.7 0 686 0C640.3 0 594.7 0 548.8 0C503 0 457 0 411.2 0C365.3 0 319.7 0 274 0C228.3 0 182.7 0 137 0C91.3 0 45.7 0 22.8 0L0 0Z" fill="#8826ff"></path><path d="M0 68L22.8 67.2C45.7 66.3 91.3 64.7 137 64.7C182.7 64.7 228.3 66.3 274 66C319.7 65.7 365.3 63.3 411.2 61.2C457 59 503 57 548.8 57.2C594.7 57.3 640.3 59.7 686 57C731.7 54.3 777.3 46.7 823 45.7C868.7 44.7 914.3 50.3 937.2 53.2L960 56L960 0L937.2 0C914.3 0 868.7 0 823 0C777.3 0 731.7 0 686 0C640.3 0 594.7 0 548.8 0C503 0 457 0 411.2 0C365.3 0 319.7 0 274 0C228.3 0 182.7 0 137 0C91.3 0 45.7 0 22.8 0L0 0Z" fill="#8018ff"></path><path d="M0 50L22.8 48C45.7 46 91.3 42 137 38.7C182.7 35.3 228.3 32.7 274 33.7C319.7 34.7 365.3 39.3 411.2 41.2C457 43 503 42 548.8 40.2C594.7 38.3 640.3 35.7 686 32.8C731.7 30 777.3 27 823 26.7C868.7 26.3 914.3 28.7 937.2 29.8L960 31L960 0L937.2 0C914.3 0 868.7 0 823 0C777.3 0 731.7 0 686 0C640.3 0 594.7 0 548.8 0C503 0 457 0 411.2 0C365.3 0 319.7 0 274 0C228.3 0 182.7 0 137 0C91.3 0 45.7 0 22.8 0L0 0Z" fill="#7700ff"></path></svg>