<svg id="visual" viewBox="0 0 960 300" width="960" height="300" xmlns="http://www.w3.org/2000/svg" xmlns:xlink="http://www.w3.org/1999/xlink" version="1.1"><rect x="0" y="0" width="960" height="300" fill="#ffffff"></rect><path d="M0 136L22.8 143.2C45.7 150.3 91.3 164.7 137 172.2C182.7 179.7 228.3 180.3 274 182.2C319.7 184 365.3 187 411.2 188.7C457 190.3 503 190.7 548.8 185.2C594.7 179.7 640.3 168.3 686 167.5C731.7 166.7 777.3 176.3 823 171C868.7 165.7 914.3 145.3 937.2 135.2L960 125L960 301L937.2 301C914.3 301 868.7 301 823 301C777.3 301 731.7 301 686 301C640.3 301 594.7 301 548.8 301C503 301 457 301 411.2 301C365.3 301 319.7 301 274 301C228.3 301 182.7 301 137 301C91.3 301 45.7 301 22.8 301L0 301Z" fill="#973bff"></path><path d="M0 197L22.8 193.3C45.7 189.7 91.3 182.3 137 177.7C182.7 173 228.3 171 274 176.8C319.7 182.7 365.3 196.3 411.2 198C457 199.7 503 189.3 548.8 188.3C594.7 187.3 640.3 195.7 686 192.7C731.7 189.7 777.3 175.3 823 171.2C868.7 167 914.3 173 937.2 176L960 179L960 301L937.2 301C914.3 301 868.7 301 823 301C777.3 301 731.7 301 686 301C640.3 301 594.7 301 548.8 301C503 301 457 301 411.2 301C365.3 301 319.7 301 274 301C228.3 301 182.7 301 137 301C91.3 301 45.7 301 22.8 301L0 301Z" fill="#9031ff"></path><path d="M0 188L22.8 191.3C45.7 194.7 91.3 201.3 137 208.7C182.7 216 228.3 224 274 227.2C319.7 230.3 365.3 228.7 411.2 222C457 215.3 503 203.7 548.8 198.2C594.7 192.7 640.3 193.3 686 197.7C731.7 202 777.3 210 823 209.3C868.7 208.7 914.3 199.3 937.2 194.7L960 190L960 301L937.2 301C914.3 301 868.7 301 823 301C777.3 301 731.7 301 686 301C640.3 301 594.7 301 548.8 301C503 301 457 301 411.2 301C365.3 301 319.7 301 274 301C228.3 301 182.7 301 137 301C91.3 301 45.7 301 22.8 301L0 301Z" fill="#8826ff"></path><path d="M0 230L22.8 230.8C45.7 231.7 91.3 233.3 137 233.3C182.7 233.3 228.3 231.7 274 232C319.7 232.3 365.3 234.7 411.2 236.8C457 239 503 241 548.8 240.8C594.7 240.7 640.3 238.3 686 241C731.7 243.7 777.3 251.3 823 252.3C868.7 253.3 914.3 247.7 937.2 244.8L960 242L960 301L937.2 301C914.3 301 868.7 301 823 301C777.3 301 731.7 301 686 301C640.3 301 594.7 301 548.8 301C503 301 457 301 411.2 301C365.3 301 319.7 301 274 301C228.3 301 182.7 301 137 301C91.3 301 45.7 301 22.8 301L0 301Z" fill="#8018ff"></path><path d="M0 248L22.8 250C45.7 252 91.3 256 137 259.3C182.7 262.7 228.3 265.3 274 264.3C319.7 263.3 365.3 258.7 411.2 256.8C457 255 503 256 548.8 257.8C594.7 259.7 640.3 262.3 686 265.2C731.7 268 777.3 271 823 271.3C868.7 271.7 914.3 269.3 937.2 268.2L960 267L960 301L937.2 301C914.3 301 868.7 301 823 301C777.3 301 731.7 301 686 301C640.3 301 594.7 301 548.8 301C503 301 457 301 411.2 301C365.3 301 319.7 301 274 301C228.3 301 182.7 301 137 301C91.3 301 45.7 301 22.8 301L0 301Z" fill="#7700ff"></path></svg>